<svg width="141" height="23" viewBox="0 0 141 23" fill="none" xmlns="http://www.w3.org/2000/svg">
<path d="M0.517045 18V0.545454H7.40341C8.72159 0.545454 9.84659 0.78125 10.7784 1.25284C11.7159 1.71875 12.429 2.38068 12.9176 3.23864C13.4119 4.09091 13.6591 5.09375 13.6591 6.24716C13.6591 7.40625 13.4091 8.40341 12.9091 9.23864C12.4091 10.0682 11.6847 10.7045 10.7358 11.1477C9.79261 11.5909 8.65057 11.8125 7.30966 11.8125H2.69886V8.84659H6.71307C7.41761 8.84659 8.00284 8.75 8.46875 8.55682C8.93466 8.36364 9.28125 8.07386 9.50852 7.6875C9.74148 7.30114 9.85795 6.82102 9.85795 6.24716C9.85795 5.66761 9.74148 5.17898 9.50852 4.78125C9.28125 4.38352 8.93182 4.08239 8.46023 3.87784C7.99432 3.66761 7.40625 3.5625 6.69602 3.5625H4.20739V18H0.517045ZM9.94318 10.0568L14.2812 18H10.2074L5.96307 10.0568H9.94318ZM22.6227 18.2557C21.2988 18.2557 20.1539 17.9744 19.188 17.4119C18.2278 16.8437 17.4863 16.054 16.9636 15.0426C16.4409 14.0256 16.1795 12.8466 16.1795 11.5057C16.1795 10.1534 16.4409 8.97159 16.9636 7.96023C17.4863 6.94318 18.2278 6.15341 19.188 5.59091C20.1539 5.02273 21.2988 4.73864 22.6227 4.73864C23.9466 4.73864 25.0886 5.02273 26.0488 5.59091C27.0147 6.15341 27.7591 6.94318 28.2818 7.96023C28.8045 8.97159 29.0659 10.1534 29.0659 11.5057C29.0659 12.8466 28.8045 14.0256 28.2818 15.0426C27.7591 16.054 27.0147 16.8437 26.0488 17.4119C25.0886 17.9744 23.9466 18.2557 22.6227 18.2557ZM22.6397 15.4432C23.242 15.4432 23.7449 15.2727 24.1483 14.9318C24.5517 14.5852 24.8557 14.1136 25.0602 13.517C25.2704 12.9205 25.3755 12.2415 25.3755 11.4801C25.3755 10.7188 25.2704 10.0398 25.0602 9.44318C24.8557 8.84659 24.5517 8.375 24.1483 8.02841C23.7449 7.68182 23.242 7.50852 22.6397 7.50852C22.0318 7.50852 21.5204 7.68182 21.1057 8.02841C20.6966 8.375 20.3869 8.84659 20.1767 9.44318C19.9721 10.0398 19.8699 10.7188 19.8699 11.4801C19.8699 12.2415 19.9721 12.9205 20.1767 13.517C20.3869 14.1136 20.6966 14.5852 21.1057 14.9318C21.5204 15.2727 22.0318 15.4432 22.6397 15.4432ZM33.9663 22.9091C33.5061 22.9091 33.0742 22.8722 32.6708 22.7983C32.2731 22.7301 31.9436 22.642 31.6822 22.5341L32.5004 19.8239C32.9265 19.9545 33.31 20.0256 33.6509 20.0369C33.9975 20.0483 34.2958 19.9688 34.5458 19.7983C34.8015 19.6278 35.0089 19.3381 35.168 18.929L35.3811 18.375L30.685 4.90909H34.5032L37.2134 14.5227H37.3498L40.0856 4.90909H43.9293L38.8413 19.4148C38.597 20.1193 38.2646 20.733 37.8441 21.2557C37.4293 21.7841 36.9038 22.1903 36.2674 22.4744C35.6311 22.7642 34.864 22.9091 33.9663 22.9091ZM49.8887 18.2472C49.0535 18.2472 48.3091 18.1023 47.6557 17.8125C47.0023 17.517 46.4853 17.0824 46.1046 16.5085C45.7296 15.929 45.5421 15.2074 45.5421 14.3438C45.5421 13.6165 45.6756 13.0057 45.9427 12.5114C46.2097 12.017 46.5734 11.6193 47.0336 11.3182C47.4938 11.017 48.0165 10.7898 48.6018 10.6364C49.1927 10.483 49.812 10.375 50.4597 10.3125C51.2211 10.233 51.8347 10.1591 52.3006 10.0909C52.7665 10.017 53.1046 9.90909 53.3148 9.76705C53.5251 9.625 53.6302 9.41477 53.6302 9.13636V9.08523C53.6302 8.54545 53.4597 8.12784 53.1188 7.83239C52.7836 7.53693 52.3063 7.3892 51.687 7.3892C51.0336 7.3892 50.5137 7.53409 50.1273 7.82386C49.741 8.10795 49.4853 8.46591 49.3603 8.89773L46.0023 8.625C46.1728 7.82955 46.508 7.14205 47.008 6.5625C47.508 5.97727 48.1529 5.52841 48.9427 5.21591C49.7381 4.89773 50.6586 4.73864 51.704 4.73864C52.4313 4.73864 53.1273 4.82386 53.7921 4.99432C54.4626 5.16477 55.0563 5.42898 55.5734 5.78693C56.0961 6.14489 56.508 6.60511 56.8091 7.16761C57.1103 7.72443 57.2609 8.39205 57.2609 9.17045V18H53.8177V16.1847H53.7154C53.5052 16.5938 53.2239 16.9545 52.8716 17.267C52.5194 17.5739 52.0961 17.8153 51.6018 17.9915C51.1074 18.1619 50.5364 18.2472 49.8887 18.2472ZM50.9285 15.7415C51.4626 15.7415 51.9341 15.6364 52.3432 15.4261C52.7523 15.2102 53.0734 14.9205 53.3063 14.5568C53.5393 14.1932 53.6557 13.7812 53.6557 13.321V11.9318C53.5421 12.0057 53.3859 12.0739 53.187 12.1364C52.9938 12.1932 52.7751 12.2472 52.5307 12.2983C52.2864 12.3437 52.0421 12.3864 51.7978 12.4261C51.5535 12.4602 51.3319 12.4915 51.133 12.5199C50.7069 12.5824 50.3347 12.6818 50.0165 12.8182C49.6984 12.9545 49.4512 13.1392 49.2751 13.3722C49.0989 13.5994 49.0109 13.8835 49.0109 14.2244C49.0109 14.7188 49.1898 15.0966 49.5478 15.358C49.9114 15.6136 50.3716 15.7415 50.9285 15.7415ZM64.4283 0.545454V18H60.7976V0.545454H64.4283ZM89.8001 6.65625H86.0672C85.999 6.1733 85.8598 5.74432 85.6495 5.36932C85.4393 4.98864 85.1694 4.66477 84.8399 4.39773C84.5103 4.13068 84.1297 3.92614 83.6978 3.78409C83.2717 3.64205 82.8086 3.57102 82.3086 3.57102C81.4052 3.57102 80.6183 3.79545 79.9478 4.24432C79.2774 4.6875 78.7575 5.33523 78.3882 6.1875C78.0189 7.03409 77.8342 8.0625 77.8342 9.27273C77.8342 10.517 78.0189 11.5625 78.3882 12.4091C78.7632 13.2557 79.2859 13.8949 79.9564 14.3267C80.6268 14.7585 81.4024 14.9744 82.2831 14.9744C82.7774 14.9744 83.2348 14.9091 83.6552 14.7784C84.0814 14.6477 84.4592 14.4574 84.7887 14.2074C85.1183 13.9517 85.391 13.642 85.6069 13.2784C85.8285 12.9148 85.9819 12.5 86.0672 12.0341L89.8001 12.0511C89.7035 12.8523 89.462 13.625 89.0757 14.3693C88.695 15.108 88.1808 15.7699 87.5331 16.3551C86.891 16.9347 86.124 17.3949 85.2319 17.7358C84.3456 18.071 83.3427 18.2386 82.2234 18.2386C80.6666 18.2386 79.2745 17.8864 78.0473 17.1818C76.8257 16.4773 75.8598 15.4574 75.1495 14.1222C74.445 12.7869 74.0927 11.1705 74.0927 9.27273C74.0927 7.36932 74.4507 5.75 75.1666 4.41477C75.8825 3.07955 76.8541 2.0625 78.0814 1.36364C79.3086 0.659091 80.6893 0.306818 82.2234 0.306818C83.2348 0.306818 84.1723 0.448863 85.0359 0.732954C85.9052 1.01705 86.6751 1.43182 87.3456 1.97727C88.016 2.51704 88.5615 3.17898 88.9819 3.96307C89.4081 4.74716 89.6808 5.64489 89.8001 6.65625ZM96.7289 0.545454V18H93.0982V0.545454H96.7289ZM104.09 18.2472C103.255 18.2472 102.511 18.1023 101.857 17.8125C101.204 17.517 100.687 17.0824 100.306 16.5085C99.9312 15.929 99.7437 15.2074 99.7437 14.3438C99.7437 13.6165 99.8772 13.0057 100.144 12.5114C100.411 12.017 100.775 11.6193 101.235 11.3182C101.695 11.017 102.218 10.7898 102.803 10.6364C103.394 10.483 104.014 10.375 104.661 10.3125C105.423 10.233 106.036 10.1591 106.502 10.0909C106.968 10.017 107.306 9.90909 107.516 9.76705C107.727 9.625 107.832 9.41477 107.832 9.13636V9.08523C107.832 8.54545 107.661 8.12784 107.32 7.83239C106.985 7.53693 106.508 7.3892 105.889 7.3892C105.235 7.3892 104.715 7.53409 104.329 7.82386C103.943 8.10795 103.687 8.46591 103.562 8.89773L100.204 8.625C100.374 7.82955 100.71 7.14205 101.21 6.5625C101.71 5.97727 102.354 5.52841 103.144 5.21591C103.94 4.89773 104.86 4.73864 105.906 4.73864C106.633 4.73864 107.329 4.82386 107.994 4.99432C108.664 5.16477 109.258 5.42898 109.775 5.78693C110.298 6.14489 110.71 6.60511 111.011 7.16761C111.312 7.72443 111.462 8.39205 111.462 9.17045V18H108.019V16.1847H107.917C107.707 16.5938 107.425 16.9545 107.073 17.267C106.721 17.5739 106.298 17.8153 105.803 17.9915C105.309 18.1619 104.738 18.2472 104.09 18.2472ZM105.13 15.7415C105.664 15.7415 106.136 15.6364 106.545 15.4261C106.954 15.2102 107.275 14.9205 107.508 14.5568C107.741 14.1932 107.857 13.7812 107.857 13.321V11.9318C107.744 12.0057 107.587 12.0739 107.389 12.1364C107.195 12.1932 106.977 12.2472 106.732 12.2983C106.488 12.3437 106.244 12.3864 105.999 12.4261C105.755 12.4602 105.533 12.4915 105.335 12.5199C104.908 12.5824 104.536 12.6818 104.218 12.8182C103.9 12.9545 103.653 13.1392 103.477 13.3722C103.3 13.5994 103.212 13.8835 103.212 14.2244C103.212 14.7188 103.391 15.0966 103.749 15.358C104.113 15.6136 104.573 15.7415 105.13 15.7415ZM125.891 8.64205L122.567 8.84659C122.511 8.5625 122.388 8.30682 122.201 8.07955C122.013 7.84659 121.766 7.66193 121.459 7.52557C121.158 7.38352 120.797 7.3125 120.377 7.3125C119.815 7.3125 119.34 7.43182 118.954 7.67045C118.567 7.90341 118.374 8.21591 118.374 8.60795C118.374 8.92045 118.499 9.18466 118.749 9.40057C118.999 9.61648 119.428 9.78977 120.036 9.92045L122.405 10.3977C123.678 10.6591 124.627 11.0795 125.252 11.6591C125.877 12.2386 126.19 13 126.19 13.9432C126.19 14.8011 125.937 15.554 125.431 16.2017C124.931 16.8494 124.243 17.3551 123.368 17.7188C122.499 18.0767 121.496 18.2557 120.36 18.2557C118.627 18.2557 117.246 17.8949 116.218 17.1733C115.195 16.446 114.596 15.4574 114.42 14.2074L117.991 14.0199C118.099 14.5483 118.36 14.9517 118.775 15.2301C119.19 15.5028 119.721 15.6392 120.368 15.6392C121.005 15.6392 121.516 15.517 121.903 15.2727C122.295 15.0227 122.493 14.7017 122.499 14.3097C122.493 13.9801 122.354 13.7102 122.082 13.5C121.809 13.2841 121.388 13.1193 120.82 13.0057L118.553 12.554C117.275 12.2983 116.323 11.8551 115.698 11.2244C115.079 10.5937 114.769 9.78977 114.769 8.8125C114.769 7.97159 114.996 7.24716 115.451 6.6392C115.911 6.03125 116.556 5.5625 117.386 5.23295C118.221 4.90341 119.198 4.73864 120.317 4.73864C121.971 4.73864 123.272 5.08807 124.221 5.78693C125.175 6.4858 125.732 7.4375 125.891 8.64205ZM140.088 8.64205L136.764 8.84659C136.707 8.5625 136.585 8.30682 136.397 8.07955C136.21 7.84659 135.963 7.66193 135.656 7.52557C135.355 7.38352 134.994 7.3125 134.574 7.3125C134.011 7.3125 133.537 7.43182 133.15 7.67045C132.764 7.90341 132.571 8.21591 132.571 8.60795C132.571 8.92045 132.696 9.18466 132.946 9.40057C133.196 9.61648 133.625 9.78977 134.233 9.92045L136.602 10.3977C137.875 10.6591 138.824 11.0795 139.449 11.6591C140.074 12.2386 140.386 13 140.386 13.9432C140.386 14.8011 140.133 15.554 139.628 16.2017C139.128 16.8494 138.44 17.3551 137.565 17.7188C136.696 18.0767 135.693 18.2557 134.557 18.2557C132.824 18.2557 131.443 17.8949 130.414 17.1733C129.392 16.446 128.792 15.4574 128.616 14.2074L132.187 14.0199C132.295 14.5483 132.557 14.9517 132.971 15.2301C133.386 15.5028 133.917 15.6392 134.565 15.6392C135.201 15.6392 135.713 15.517 136.099 15.2727C136.491 15.0227 136.69 14.7017 136.696 14.3097C136.69 13.9801 136.551 13.7102 136.278 13.5C136.005 13.2841 135.585 13.1193 135.017 13.0057L132.75 12.554C131.471 12.2983 130.52 11.8551 129.895 11.2244C129.275 10.5937 128.966 9.78977 128.966 8.8125C128.966 7.97159 129.193 7.24716 129.647 6.6392C130.108 6.03125 130.753 5.5625 131.582 5.23295C132.417 4.90341 133.395 4.73864 134.514 4.73864C136.167 4.73864 137.468 5.08807 138.417 5.78693C139.372 6.4858 139.929 7.4375 140.088 8.64205Z" fill="black"/>
</svg>
